<mxfile host="app.diagrams.net" modified="2024-11-18T23:03:51.060Z" agent="Mozilla/5.0 (Windows NT 10.0; Win64; x64) AppleWebKit/537.36 (KHTML, like Gecko) Chrome/131.0.0.0 Safari/537.36 Edg/131.0.0.0" version="24.0.3" etag="i5vSk8TKd8FLR8ugOXaF" type="github">
  <diagram name="Page-1" id="4A3om_jzf7UF2CQUY2fY">
    <mxGraphModel>
      <root>
        <mxCell id="0" />
        <mxCell id="1" parent="0" />
      </root>
    </mxGraphModel>
  </diagram>
</mxfile>
